<?xml version="1.0"?>
<svg xmlns="http://www.w3.org/2000/svg" height="512px" viewBox="0 -90 512 512" width="512px" class=""><g><path d="m422.066406 22.640625v96c0 8.285156-6.71875 15-15 15h-73.929687c-8.449219 34.945313-39.964844 60.636719-77.136719 60.636719s-68.6875-25.6875-77.136719-60.636719h-73.929687c-8.285156 0-15-6.714844-15-15v-96c-50.777344 7.332031-89.933594 51.144531-89.933594 103.914063v100.671874c0 57.894532 47.101562 105 105 105h302c57.898438 0 105-47.105468 105-105v-100.671874c0-52.765626-39.152344-96.578126-89.933594-103.914063zm0 0" data-original="#000000" class="active-path" data-old_color="#000000" fill="#FFFFFF"/><path d="m119.933594 103.640625h71.8125c7.953125 0 14.523437 6.203125 14.976562 14.144531 1.492188 26.070313 23.136719 46.492188 49.277344 46.492188 26.144531 0 47.789062-20.421875 49.277344-46.492188.457031-7.9375 7.027344-14.144531 14.976562-14.144531h71.8125v-103.640625h-272.132812zm0 0" data-original="#000000" class="active-path" data-old_color="#000000" fill="#FFFFFF"/></g> </svg>
